<svg width="259" height="259" viewBox="0 0 259 259" fill="none" xmlns="http://www.w3.org/2000/svg">
<path d="M137 151.056C137 143.293 143.293 137 151.056 137H244.944C252.707 137 259 143.293 259 151.056V186.195C259 193.958 252.707 200.251 244.944 200.251H166.053C161.85 200.251 157.868 202.132 155.198 205.378L137 227.5V151.056Z" fill="#FFB71C"/>
<path d="M151.056 122C143.293 122 137 115.707 137 107.944L137 14.0558C137 6.29299 143.293 -2.75075e-07 151.056 -6.14398e-07L186.195 -2.15039e-06C193.958 -2.48971e-06 200.251 6.29298 200.251 14.0558L200.251 92.9472C200.251 97.15 202.132 101.132 205.378 103.802L227.5 122L151.056 122Z" fill="#FA4516"/>
<path d="M122 107.444C122 115.207 115.707 121.5 107.944 121.5L14.0558 121.5C6.29299 121.5 -5.5015e-07 115.207 -1.2288e-06 107.444L-4.30078e-06 72.3048C-4.97943e-06 64.542 6.29298 58.249 14.0558 58.249L92.9472 58.249C97.15 58.249 101.132 56.3683 103.802 53.1225L122 31L122 107.444Z" fill="#26CAD3"/>
<path d="M107.444 137C115.207 137 121.5 143.293 121.5 151.056L121.5 244.944C121.5 252.707 115.207 259 107.444 259L72.3048 259C64.542 259 58.249 252.707 58.249 244.944L58.249 166.053C58.249 161.85 56.3683 157.868 53.1225 155.198L31 137L107.444 137Z" fill="#10437C"/>
</svg>
