<svg width="92" height="92" viewBox="0 0 92 92" fill="none" xmlns="http://www.w3.org/2000/svg">
<path d="M82.3113 9.68411C82.6374 10.0108 82.8604 10.4262 82.9526 10.8786C83.0447 11.331 83.002 11.8005 82.8296 12.2288L55.4119 80.7791C55.1703 81.3828 54.7668 81.9082 54.2459 82.2973C53.725 82.6864 53.1068 82.9243 52.4595 82.9847C51.8121 83.0451 51.1606 82.9257 50.5767 82.6397C49.9928 82.3537 49.4991 81.912 49.15 81.3635L34.1761 57.8253L10.6409 42.8495C10.0911 42.5007 9.64836 42.0068 9.3615 41.4223C9.07464 40.8378 8.95482 40.1853 9.01526 39.537C9.0757 38.8887 9.31405 38.2696 9.70401 37.7482C10.094 37.2268 10.6204 36.8233 11.2251 36.5821L79.7669 9.17046C80.1952 8.99805 80.6646 8.95526 81.1169 9.04742C81.5693 9.13957 81.9846 9.36261 82.3113 9.68882V9.68411ZM38.8784 56.4493L51.8875 76.8915L74.1882 21.1351L38.8784 56.4493ZM70.857 17.8035L15.1076 40.107L35.5519 53.113L70.857 17.8035Z" fill="white"/>
</svg>
